<?xml version="1.0" encoding="utf-8"?>
<!-- Generator: Adobe Illustrator 22.0.0, SVG Export Plug-In . SVG Version: 6.00 Build 0)  -->
<svg version="1.1" xmlns="http://www.w3.org/2000/svg" xmlns:xlink="http://www.w3.org/1999/xlink" x="0px" y="0px"
	 viewBox="0 0 100 100" style="enable-background:new 0 0 100 100;" xml:space="preserve">
<style type="text/css">
	.st0{fill:#80C7EE;}
	.st1{fill:#047CC0;}
	.st2{fill:#F1F1F2;stroke:url(#SVGID_1_);stroke-width:18;stroke-miterlimit:10;}
	.st3{fill:#F1F1F2;stroke:url(#SVGID_2_);stroke-width:18;stroke-miterlimit:10;}
	.st4{fill:#F1F1F2;stroke:url(#SVGID_3_);stroke-width:18;stroke-miterlimit:10;}
	.st5{fill:#F1F1F2;stroke:url(#SVGID_4_);stroke-width:18;stroke-miterlimit:10;}
	.st6{fill:#F1F1F2;stroke:url(#SVGID_5_);stroke-width:18;stroke-miterlimit:10;}
	.st7{fill:#F1F1F2;stroke:url(#SVGID_6_);stroke-width:18;stroke-miterlimit:10;}
	.st8{fill:#F1F1F2;stroke:url(#SVGID_7_);stroke-width:18;stroke-miterlimit:10;}
	.st9{fill:#F1F1F2;stroke:url(#SVGID_8_);stroke-width:18;stroke-miterlimit:10;}
	.st10{fill:#F1F1F2;stroke:url(#SVGID_9_);stroke-width:18;stroke-miterlimit:10;}
	.st11{fill:#FAAF66;}
	.st12{fill:#EB6124;}
	.st13{fill:#F1F1F2;stroke:#EB6124;stroke-width:18;stroke-linecap:square;stroke-miterlimit:10;}
	.st14{fill:#BB86BB;}
	.st15{fill:#F1F1F2;stroke:#782B8B;stroke-width:18;stroke-miterlimit:10;}
	.st16{fill:#782B8B;}
	.st17{fill:#F1F1F2;}
	.st18{fill:#F05B62;}
	.st19{fill:#A91E23;}
	.st20{fill:#F1F1F2;stroke:#A91E23;stroke-width:18;stroke-linecap:round;stroke-linejoin:round;stroke-miterlimit:10;}
	.st21{fill:none;stroke:#A91E23;stroke-width:18.7984;stroke-linecap:round;stroke-miterlimit:10;}
	.st22{fill:#A4D183;}
	.st23{fill:#5C9A43;}
	.st24{fill:#F1F1F2;stroke:url(#SVGID_10_);stroke-width:18;stroke-miterlimit:10;}
	.st25{fill:none;stroke:#231F20;stroke-width:9.2291;stroke-miterlimit:10;}
	.st26{fill:url(#SVGID_11_);}
	.st27{fill:url(#SVGID_12_);}
	.st28{fill:none;}
	.st29{fill:#F1F1F2;stroke:url(#SVGID_13_);stroke-width:18;stroke-miterlimit:10;}
	.st30{fill:url(#SVGID_14_);}
	.Graphic_x0020_Style{fill:#F1F1F2;stroke:#EB6124;stroke-width:18;stroke-linecap:square;stroke-miterlimit:10;}
	.st31{display:none;}
	.st32{display:inline;}
	.st33{fill:#8FA2B0;}
	.st34{fill:#5B6770;}
	.st35{fill:#F1F1F2;stroke:#5B6770;stroke-width:18;stroke-miterlimit:10;}
	.st36{fill:#F1F1F2;stroke:#5B6770;stroke-width:17.9365;stroke-miterlimit:10;}
	.st37{fill:#F1F1F2;stroke:#5B6770;stroke-width:17.9375;stroke-miterlimit:10;}
	.st38{fill:none;stroke:#5B6770;stroke-width:18;stroke-miterlimit:10;}
	.st39{fill:#F1F1F2;stroke:#5B6770;stroke-width:1.764;stroke-miterlimit:10;}
	.st40{fill:#F1F1F2;stroke:#5B6770;stroke-width:1.7578;stroke-miterlimit:10;}
	.st41{fill:#F1F1F2;stroke:#5B6770;stroke-width:1.7579;stroke-miterlimit:10;}
	.st42{fill:none;stroke:#5B6770;stroke-width:1.764;stroke-miterlimit:10;}
	.st43{fill:#F1F1F2;stroke:#EB6124;stroke-width:18;stroke-miterlimit:10;}
	.st44{fill:none;stroke:#EB6124;stroke-width:18;stroke-miterlimit:10;}
	.st45{fill:none;stroke:#EB6124;stroke-width:18;stroke-miterlimit:10;stroke-dasharray:82.7773,27.5924;}
	.st46{fill:none;stroke:#EB6124;stroke-width:18;stroke-miterlimit:10;stroke-dasharray:68.2487,22.7496;}
	.st47{fill:#F1F1F2;stroke:url(#SVGID_15_);stroke-width:18;stroke-miterlimit:10;}
	.st48{fill:url(#SVGID_16_);}
	.st49{fill:url(#SVGID_17_);}
	.st50{fill:#F1F1F2;stroke:url(#SVGID_18_);stroke-width:18;stroke-miterlimit:10;}
	.st51{fill:url(#SVGID_19_);}
	.st52{fill:#F1F1F2;stroke:#A91E23;stroke-width:14.0021;stroke-linecap:round;stroke-linejoin:round;stroke-miterlimit:10;}
	.st53{fill:none;stroke:#A91E23;stroke-width:18;stroke-linecap:round;stroke-miterlimit:10;}
	.st54{fill:#F1F1F2;stroke:url(#SVGID_20_);stroke-width:18;stroke-miterlimit:10;}
	.st55{fill:#F1F1F2;stroke:#5C9A43;stroke-width:18;stroke-linecap:round;stroke-linejoin:round;stroke-miterlimit:10;}
	.st56{fill:#F1F1F2;stroke:url(#SVGID_21_);stroke-width:18;stroke-miterlimit:10;}
	.st57{fill:url(#SVGID_22_);}
	.st58{fill:url(#SVGID_23_);}
	.st59{fill:#F1F1F2;stroke:url(#SVGID_24_);stroke-width:18;stroke-miterlimit:10;}
	.st60{fill:url(#SVGID_25_);}
	.st61{fill:#F1F1F2;stroke:url(#SVGID_26_);stroke-width:18;stroke-miterlimit:10;}
	.st62{fill:#F1F1F2;stroke:#5B6770;stroke-width:18;stroke-linecap:round;stroke-linejoin:round;stroke-miterlimit:10;}
	.st63{fill:#EDFF00;}
</style>
<pattern  y="1099" width="6.1" height="6.1" patternUnits="userSpaceOnUse" id="New_Pattern_Swatch_3" viewBox="0 -6.1 6.1 6.1" style="overflow:visible;">
	<g>
		<rect y="-6.1" class="st28" width="6.1" height="6.1"/>
		<rect y="-6.1" class="st1" width="6.1" height="6.1"/>
	</g>
</pattern>
<g id="Complete">
	<g id="Carbon">
		<g>
			<g>
				<path class="st33" d="M50,97.1c-1.2,0-2.3-0.3-3.3-0.9L11.6,76c-2.1-1.2-3.3-3.4-3.3-5.8V29.8c0-2.4,1.3-4.6,3.3-5.8L46.7,3.8
					c1-0.6,2.2-0.9,3.3-0.9c1.2,0,2.3,0.3,3.3,0.9L88.4,24c2.1,1.2,3.3,3.4,3.3,5.8v40.5c0,2.4-1.3,4.6-3.3,5.8L53.3,96.2
					C52.3,96.8,51.2,97.1,50,97.1z"/>
				<path class="st34" d="M50,4.7c0.8,0,1.7,0.2,2.4,0.6l35.1,20.2c1.5,0.9,2.4,2.5,2.4,4.2v40.5c0,1.7-0.9,3.3-2.4,4.2L52.4,94.6
					c-0.7,0.4-1.6,0.6-2.4,0.6c-0.8,0-1.7-0.2-2.4-0.6L12.5,74.4c-1.5-0.9-2.4-2.5-2.4-4.2V29.8c0-1.7,0.9-3.3,2.4-4.2L47.6,5.4
					C48.3,4.9,49.2,4.7,50,4.7 M50,1c-1.5,0-3,0.4-4.3,1.1L10.7,22.4c-2.6,1.5-4.3,4.4-4.3,7.4v40.5c0,3,1.6,5.9,4.3,7.4l35.1,20.2
					C47,98.6,48.5,99,50,99c1.5,0,3-0.4,4.3-1.1l35.1-20.2c2.6-1.5,4.3-4.4,4.3-7.4V29.8c0-3-1.6-5.9-4.3-7.4L54.3,2.1
					C53,1.4,51.5,1,50,1L50,1z"/>
				<g>
					<rect x="42.4" y="37.7" class="st39" width="13.5" height="32.5"/>
					<circle class="st34" cx="49.1" cy="48.2" r="2.9"/>
				</g>
				<g>
					<rect x="60.9" y="28.8" class="st40" width="13.5" height="41.5"/>
					<circle class="st34" cx="67.6" cy="55.3" r="2.9"/>
				</g>
				<g>
					<rect x="23.8" y="49.4" class="st41" width="13.5" height="20.9"/>
					<circle class="st34" cx="30.6" cy="61.2" r="2.9"/>
				</g>
				<polyline class="st42" points="30.5,61.2 49.2,48.1 67.6,55.3 				"/>
			</g>
		</g>
	</g>
</g>
<g id="_x5F_COPY_ME" class="st31">

		<use xlink:href="#Terra_1_"  width="890" height="1000" y="-1000" transform="matrix(9.800000e-02 0 0 -9.800000e-02 6.39 1)" style="display:inline;overflow:visible;"/>
</g>
<g id="Template">
	<g id="Grey">
	</g>
	<g id="Red">
	</g>
	<g id="Blue">
	</g>
	<g id="Purple">
	</g>
</g>
<g id="Instructions">
</g>
</svg>
